{
	"asset":{
		"version":"2.0",
		"generator":"Created using the official Cinema 4D glTF Exporter 1.000x284978"
	},
	"scenes":[{
		"nodes":[0,
		1]
	}],
	"nodes":[{
		"name":"base",
		"translation":[0.0,
		23.77383804321289,
		0.0],
		"rotation":[0.0,
		0.0,
		0.0,
		-1.0],
		"scale":[1.0,
		1.0,
		1.0],
		"mesh":0
	},
	{
		"name":"Cube",
		"translation":[0.0,
		-4.7254838943481449,
		0.0],
		"rotation":[0.0,
		0.0,
		0.0,
		-1.0],
		"scale":[1.0,
		1.0,
		1.0],
		"mesh":1
	}],
	"meshes":[{
		"name":"base",
		"primitives":[{
			"attributes":{
				"POSITION":1,
				"NORMAL":2,
				"TEXCOORD_0":3
			},
			"indices":0,
			"material":0
		}]
	},
	{
		"name":"Cube",
		"primitives":[{
			"attributes":{
				"POSITION":5,
				"NORMAL":6,
				"TEXCOORD_0":7
			},
			"indices":4
		}]
	}],
	"accessors":[{
		"bufferView":0,
		"type":"SCALAR",
		"componentType":5123,
		"count":3300,
		"byteOffset":0,
		"min":[0],
		"max":[660]
	},
	{
		"bufferView":1,
		"type":"VEC3",
		"componentType":5126,
		"count":661,
		"byteOffset":0,
		"min":[-100.0,
		-25.0,
		-99.80267333984375],
		"max":[100.0,
		25.0,
		99.80267333984375]
	},
	{
		"bufferView":1,
		"type":"VEC3",
		"componentType":5126,
		"count":661,
		"byteOffset":12,
		"min":[-1.0,
		-1.0,
		-0.9980266690254211],
		"max":[1.0,
		1.0,
		0.9980266690254211]
	},
	{
		"bufferView":1,
		"type":"VEC2",
		"componentType":5126,
		"count":661,
		"byteOffset":24,
		"min":[0.0,
		0.0],
		"max":[1.0,
		1.0]
	},
	{
		"bufferView":2,
		"type":"SCALAR",
		"componentType":5123,
		"count":36,
		"byteOffset":0,
		"min":[0],
		"max":[23]
	},
	{
		"bufferView":3,
		"type":"VEC3",
		"componentType":5126,
		"count":24,
		"byteOffset":0,
		"min":[-182.63551330566407,
		-1.3802852630615235,
		-182.63551330566407],
		"max":[182.63551330566407,
		1.3802852630615235,
		182.63551330566407]
	},
	{
		"bufferView":3,
		"type":"VEC3",
		"componentType":5126,
		"count":24,
		"byteOffset":12,
		"min":[-1.0,
		-1.0,
		-1.0],
		"max":[1.0,
		1.0,
		1.0]
	},
	{
		"bufferView":3,
		"type":"VEC2",
		"componentType":5126,
		"count":24,
		"byteOffset":24,
		"min":[0.0,
		0.0],
		"max":[1.0,
		1.0]
	}],
	"bufferViews":[{
		"buffer":0,
		"byteOffset":0,
		"byteLength":6600,
		"target":34963
	},
	{
		"buffer":0,
		"byteOffset":6600,
		"byteLength":21152,
		"target":34962,
		"byteStride":32
	},
	{
		"buffer":1,
		"byteOffset":0,
		"byteLength":72,
		"target":34963
	},
	{
		"buffer":1,
		"byteOffset":72,
		"byteLength":768,
		"target":34962,
		"byteStride":32
	}],
	"buffers":[{
		"uri":"data:application/octet-stream;base64,",
		"byteLength":27752
	},
	{
		"uri":"data:application/octet-stream;base64,",
		"byteLength":840
	}],
	"materials":[{
		"pbrMetallicRoughness":{
			"baseColorFactor":[0.99,
			0.99,
			0.99,
			1.0],
			"metallicFactor":0.0,
			"roughnessFactor":0.5
		},
		"emissiveFactor":[0.0,
		0.0,
		0.0],
		"alphaMode":"OPAQUE",
		"doubleSided":false,
		"name":"Mat"
	}]
}